<?xml version="1.0" encoding="utf-8"?>
<!-- Generator: Adobe Illustrator 15.0.0, SVG Export Plug-In . SVG Version: 6.00 Build 0)  -->
<!DOCTYPE svg PUBLIC "-//W3C//DTD SVG 1.1//EN" "http://www.w3.org/Graphics/SVG/1.1/DTD/svg11.dtd">
<svg version="1.1" id="Layer_1" xmlns="http://www.w3.org/2000/svg" xmlns:xlink="http://www.w3.org/1999/xlink" x="0px" y="0px"
	 width="100px" height="100px" viewBox="0 0 100 100" enable-background="new 0 0 100 100" xml:space="preserve">
<path fill-rule="evenodd" clip-rule="evenodd" fill="#E22027" d="M99.816,50.107c0-27.312-22.283-49.596-49.596-49.596
	c-27.312,0-49.596,22.284-49.596,49.596c0,27.313,22.284,49.596,49.596,49.596C77.533,99.703,99.816,77.42,99.816,50.107z"/>
<g>
	<path fill-rule="evenodd" clip-rule="evenodd" fill="#FFFFFF" d="M66.084,65.971H42.289c-2.976,0-4.165-1.188-4.368-2.184
		l-6.648-30.335c-0.191-0.996-0.984-2.184-1.883-2.184h-9.913v-1.992h9.913c1.883,0,3.479,1.883,3.876,3.767l6.647,30.349
		c0.096,0.3,0.588,0.6,2.376,0.6h23.795V65.971L66.084,65.971z"/>
</g>
<g>
	<path fill-rule="evenodd" clip-rule="evenodd" fill="#FFFFFF" d="M61.129,71.923c0.6,0,0.995,0.301,0.995,0.997
		c0,0.695-0.396,0.995-0.995,0.995v1.98c1.691,0,2.975-1.188,2.975-2.976s-0.888-2.881-2.579-2.881l-0.396-0.097V71.923z
		 M61.129,71.923 M61.129,73.915c-0.602,0-0.996-0.3-0.996-0.995c0-0.696,0.395-0.997,0.996-0.997v-1.98
		c-1.692,0-2.976,1.19-2.976,2.978s1.283,2.976,2.976,2.976V73.915L61.129,73.915z M61.129,71.923"/>
</g>
<g>
	<path fill-rule="evenodd" clip-rule="evenodd" fill="#FFFFFF" d="M44.269,71.923c0.6,0,0.996,0.301,0.996,0.997
		c0,0.695-0.396,0.995-0.996,0.995v1.98c1.692,0,2.976-1.188,2.976-2.976s-1.284-2.978-2.976-2.978V71.923z M44.269,71.923
		L44.269,71.923L44.269,71.923z M44.269,69.942 M44.269,73.915c-0.588,0-0.984-0.3-0.984-0.995c0-0.696,0.396-0.997,0.984-0.997
		v-1.98c-1.681,0-2.976,1.19-2.976,2.978s1.295,2.976,2.976,2.976V73.915L44.269,73.915z M44.269,71.923L44.269,71.923
		L44.269,71.923z M44.269,69.942"/>
</g>
<g>
	<path fill-rule="evenodd" clip-rule="evenodd" fill="#FFFFFF" d="M62.124,48.127V60.02h-8.927v1.991h8.927
		c1.092,0,1.979-0.995,1.979-1.991V48.127c0-0.996-0.888-1.98-1.979-1.98l0,0h-8.927v1.933l8.723-0.048L62.124,48.127z
		 M53.197,60.02h-8.929V48.127l8.929-0.048v-1.933h-8.929c-1.092,0-1.979,0.984-1.979,1.98V60.02c0,0.996,0.888,1.991,1.979,1.991
		h8.929V60.02z"/>
</g>
<g>
	<rect x="51.204" y="24.32" fill-rule="evenodd" clip-rule="evenodd" fill="#FFFFFF" width="1.993" height="17.856"/>
	<polygon fill-rule="evenodd" clip-rule="evenodd" fill="#FFFFFF" points="51.996,24.512 52.2,23.323 57.66,28.688 56.965,29.384 	
		"/>
	<polygon fill-rule="evenodd" clip-rule="evenodd" fill="#FFFFFF" points="47.245,29.479 46.56,28.784 52.2,23.323 52.2,24.512 	"/>
</g>
</svg>
