<?xml version="1.0" encoding="utf-8"?>
<!-- Generator: Adobe Illustrator 15.0.0, SVG Export Plug-In . SVG Version: 6.00 Build 0)  -->
<!DOCTYPE svg PUBLIC "-//W3C//DTD SVG 1.1//EN" "http://www.w3.org/Graphics/SVG/1.1/DTD/svg11.dtd">
<svg version="1.1" id="Layer_1" xmlns="http://www.w3.org/2000/svg" xmlns:xlink="http://www.w3.org/1999/xlink" x="0px" y="0px"
	 width="100px" height="100px" viewBox="0 0 100 100" enable-background="new 0 0 100 100" xml:space="preserve">
<g>
	<path fill-rule="evenodd" clip-rule="evenodd" fill="#E22027" d="M100,50.076C100,22.5,77.5,0,49.924,0S-0.152,22.5-0.152,50.076
		s22.5,50.076,50.076,50.076S100,77.652,100,50.076z"/>
	<g>
		<g>
			<path fill-rule="evenodd" clip-rule="evenodd" fill="#FFFFFF" d="M80.965,54.074V71.11h-4.507v1.999h6.519V52.075l0,0h-6.519
				v1.999H80.965L80.965,54.074z M76.458,71.11h-4.507V54.074h4.507v-1.999h-6.506v21.034h6.506V71.11z"/>
		</g>
	</g>
	<g>
		<polygon fill-rule="evenodd" clip-rule="evenodd" fill="#FFFFFF" points="59.932,73.109 67.952,73.109 67.952,23.033 
			42.921,23.033 42.921,39.063 44.92,39.063 44.92,25.044 65.941,25.044 65.941,71.11 59.932,71.11 		"/>
	</g>
	<g>
		<g>
			<path fill-rule="evenodd" clip-rule="evenodd" fill="#FFFFFF" d="M57.933,41.062v33.053H43.914v2h16.018V39.063l0,0H43.914v1.999
				H57.933L57.933,41.062z M43.914,74.114H29.896V41.062h14.019v-1.999H27.896v37.052h16.018V74.114z"/>
		</g>
	</g>
	<g>
		<polygon fill-rule="evenodd" clip-rule="evenodd" fill="#FFFFFF" points="27.896,49.083 16.871,49.083 16.871,71.11 27.896,71.11 
			27.896,69.099 18.882,69.099 18.882,51.069 27.896,51.069 		"/>
	</g>
	<g>
		<g>
			<path fill-rule="evenodd" clip-rule="evenodd" fill="#FFFFFF" d="M54.928,44.066v4.011h-4.011v1.005h5.017v-6.009l0,0h-5.017
				v0.993H54.928L54.928,44.066z M50.917,48.077h-3.998v-4.011h3.998v-0.993h-4.992v6.009h4.992V48.077z"/>
		</g>
	</g>
	<g>
		<g>
			<path fill-rule="evenodd" clip-rule="evenodd" fill="#FFFFFF" d="M51.923,25.044v8.009h-1.999v1.005h3.005v-10.02l0,0h-3.005
				v1.006H51.923L51.923,25.044z M49.924,33.053h-1.999v-8.009h1.999v-1.006h-3.005v10.02h3.005V33.053z"/>
		</g>
	</g>
	<rect x="73.962" y="68.105" fill-rule="evenodd" clip-rule="evenodd" fill="#FFFFFF" width="5.004" height="0.993"/>
	<rect x="73.962" y="65.101" fill-rule="evenodd" clip-rule="evenodd" fill="#FFFFFF" width="5.004" height="0.993"/>
	<rect x="73.962" y="62.096" fill-rule="evenodd" clip-rule="evenodd" fill="#FFFFFF" width="5.004" height="0.993"/>
	<rect x="73.962" y="56.086" fill-rule="evenodd" clip-rule="evenodd" fill="#FFFFFF" width="5.004" height="0.993"/>
	<rect x="73.962" y="59.091" fill-rule="evenodd" clip-rule="evenodd" fill="#FFFFFF" width="5.004" height="0.993"/>
</g>
</svg>
