<?xml version="1.0" encoding="utf-8"?>
<!-- Generator: Adobe Illustrator 15.0.0, SVG Export Plug-In . SVG Version: 6.00 Build 0)  -->
<!DOCTYPE svg PUBLIC "-//W3C//DTD SVG 1.1//EN" "http://www.w3.org/Graphics/SVG/1.1/DTD/svg11.dtd">
<svg version="1.1" id="Layer_1" xmlns="http://www.w3.org/2000/svg" xmlns:xlink="http://www.w3.org/1999/xlink" x="0px" y="0px"
	 width="100px" height="100px" viewBox="0 0 100 100" enable-background="new 0 0 100 100" xml:space="preserve">
<g>
	<path fill-rule="evenodd" clip-rule="evenodd" fill="#E22027" d="M100.245,50.034c0-27.382-22.341-49.723-49.724-49.723
		c-27.381,0-49.723,22.341-49.723,49.723c0,27.382,22.342,49.723,49.723,49.723C77.904,99.757,100.245,77.416,100.245,50.034z"/>
	<g>
		<path fill-rule="evenodd" clip-rule="evenodd" fill="#FFFFFF" d="M57.475,31.146v30.822H41.571V63.7l17.396-0.24l0.506-34.312l0,0
			H41.571v1.998H57.475L57.475,31.146z M41.571,61.968H25.667V31.146h15.905v-1.998H23.67v34.805L41.571,63.7V61.968z"/>
	</g>
	<path fill-rule="evenodd" clip-rule="evenodd" fill="#FFFFFF" d="M74.692,49.744l-4.284-10.646H69.41v1.985l3.982,9.937
		l5.967,2.984v13.932H69.41v1.984h11.935V53.017L74.692,49.744z M69.41,39.098H57.475V69.92h1.998h0.985h0.205h8.747v-1.984h-9.938
		v-0.999V41.083h9.938V39.098z"/>
	<path fill-rule="evenodd" clip-rule="evenodd" fill="#FFFFFF" d="M37.601,65.444v1.492c1.889,0,2.984,1.095,2.984,2.983
		s-1.095,2.984-2.984,2.984c-1.888,0-2.984-1.096-2.984-2.984s1.096-2.983,2.984-2.983V65.444v-0.493
		c-2.984,0-4.98,1.985-4.98,4.969c0,2.984,1.997,4.969,4.98,4.969s4.969-1.984,4.969-4.969c0-2.983-1.985-4.969-4.969-4.969V65.444z
		"/>
	<path fill-rule="evenodd" clip-rule="evenodd" fill="#E22027" d="M70.902,69.92c0-2.466-2.009-4.476-4.478-4.476
		c-2.465,0-4.474,2.01-4.474,4.476c0,2.467,2.009,4.477,4.474,4.477C68.894,74.396,70.902,72.387,70.902,69.92z"/>
	<path fill-rule="evenodd" clip-rule="evenodd" fill="#FFFFFF" d="M66.425,66.937L66.425,66.937c1.891,0,2.985,1.095,2.985,2.983
		s-1.095,2.984-2.985,2.984c-1.887,0-2.981-1.096-2.981-2.984S64.538,66.937,66.425,66.937v-1.492v-0.493
		c-2.981,0-4.967,1.985-4.967,4.969c0,2.984,1.985,4.969,4.967,4.969c2.985,0,4.982-1.984,4.982-4.969
		c0-2.983-1.997-4.969-4.982-4.969V66.937z"/>
	<rect x="40.584" y="65.937" fill-rule="evenodd" clip-rule="evenodd" fill="#FFFFFF" width="17.889" height="1"/>
	<polygon fill-rule="evenodd" clip-rule="evenodd" fill="#FFFFFF" points="26.652,65.937 35.604,65.937 34.617,66.937 
		26.652,66.937 	"/>
	<polygon fill-rule="evenodd" clip-rule="evenodd" fill="#FFFFFF" points="61.458,50.034 73.393,50.034 74.391,51.02 61.458,51.02 	
		"/>
	<rect x="61.458" y="40.096" fill-rule="evenodd" clip-rule="evenodd" fill="#FFFFFF" width="0.998" height="10.923"/>
	<rect x="61.458" y="53.017" fill-rule="evenodd" clip-rule="evenodd" fill="#FFFFFF" width="3.981" height="0.987"/>
	<rect x="75.377" y="63.953" fill-rule="evenodd" clip-rule="evenodd" fill="#FFFFFF" width="4.98" height="0.998"/>
	<rect x="75.377" y="60.97" fill-rule="evenodd" clip-rule="evenodd" fill="#FFFFFF" width="4.98" height="0.998"/>
	<polygon fill-rule="evenodd" clip-rule="evenodd" fill="#FFFFFF" points="26.652,61.968 27.652,61.968 27.652,65.937 
		26.652,66.937 	"/>
	<rect x="10.736" y="52.018" fill-rule="evenodd" clip-rule="evenodd" fill="#FFFFFF" width="26.865" height="0.999"/>
	<rect x="12.733" y="45.065" fill-rule="evenodd" clip-rule="evenodd" fill="#FFFFFF" width="26.853" height="0.999"/>
	<rect x="14.718" y="39.098" fill-rule="evenodd" clip-rule="evenodd" fill="#FFFFFF" width="26.853" height="0.999"/>
</g>
</svg>
