<?xml version="1.0" encoding="utf-8"?>
<!-- Generator: Adobe Illustrator 15.0.0, SVG Export Plug-In . SVG Version: 6.00 Build 0)  -->
<!DOCTYPE svg PUBLIC "-//W3C//DTD SVG 1.1//EN" "http://www.w3.org/Graphics/SVG/1.1/DTD/svg11.dtd">
<svg version="1.1" id="Layer_1" xmlns="http://www.w3.org/2000/svg" xmlns:xlink="http://www.w3.org/1999/xlink" x="0px" y="0px"
	 width="100px" height="100px" viewBox="0 0 100 100" enable-background="new 0 0 100 100" xml:space="preserve">
<g>
	<path fill-rule="evenodd" clip-rule="evenodd" fill="#E22027" d="M100,50.077C100,22.5,77.673,0,50.307,0
		C22.942,0,0.614,22.5,0.614,50.077c0,27.576,22.328,50.076,49.693,50.076C77.673,100.152,100,77.652,100,50.077z"/>
	<g>
		<g>
			<path fill-rule="evenodd" clip-rule="evenodd" fill="#FFFFFF" d="M70.18,23.033v54.086H50.307v2h21.86V21.033l0,0h-21.86v2H70.18
				L70.18,23.033z M50.307,77.119H30.432V23.033h19.875v-2H28.448v58.086h21.859V77.119z"/>
		</g>
	</g>
	<g>
		<g>
			<g>
				<g>
					<path fill-rule="evenodd" clip-rule="evenodd" fill="#FFFFFF" d="M53.48,38.663l3.077,8.008l-2.283-0.993l-0.89,2.072v2.373
						l0.793-1.744l0.602-1.405l1.383,0.605l2.188,0.994l-0.889-2.194l-3.092-8.02l-0.396-1.006l0,0l-0.589,0.278v1.066L53.48,38.663
						L53.48,38.663z M53.385,47.75l-0.097,0.23l-3.078-8.021l3.175-1.26v-1.066l-0.301,0.134l-3.366,1.296l-0.902,0.399l0.409,0.909
						l3.065,8.008l0.89,2.193l0.205-0.449V47.75z"/>
				</g>
			</g>
			<g>
				<g>
					<path fill-rule="evenodd" clip-rule="evenodd" fill="#FFFFFF" d="M48.022,38.663l3.271,1.405l-3.318,7.791v2.278l0.841-1.854
						l3.377-7.912l0.397-0.909l-0.901-0.399l-3.271-1.406l-0.444-0.146v1.261L48.022,38.663L48.022,38.663z M47.975,47.859
						l-0.049,0.122l-0.889-2.412l-2.393,0.909l3.331-7.706v-1.261l-0.446-0.157l0,0l-0.396,0.908l-3.378,7.912l-0.999,2.205
						l2.189-0.896l1.395-0.606l0.589,1.406l0.902,2.192l0.145-0.338V47.859z"/>
				</g>
			</g>
		</g>
		<g>
			<g>
				<path fill-rule="evenodd" clip-rule="evenodd" fill="#FFFFFF" d="M50.307,31.054c2.777,0,4.967,2.205,4.967,5.004
					c0,2.811-2.189,5.004-4.967,5.004v2.011c3.871,0,6.948-3.114,6.948-7.015c0-3.902-3.077-7.016-6.948-7.016V31.054z
					 M50.307,31.054L50.307,31.054L50.307,31.054z M50.307,29.042 M50.307,41.062c-2.778,0-4.965-2.193-4.965-5.004
					c0-2.799,2.188-5.004,4.965-5.004v-2.011c-3.872,0-6.95,3.114-6.95,7.016c0,3.901,3.078,7.015,6.95,7.015V41.062L50.307,41.062z
					 M50.307,31.054L50.307,31.054L50.307,31.054z M50.307,29.042"/>
			</g>
		</g>
	</g>
	<path fill-rule="evenodd" clip-rule="evenodd" fill="#FFFFFF" d="M66.202,84.135c5.77,0,9.943-4.215,9.943-10.02
		c0-5.814-4.174-10.02-9.943-10.02v1.998c2.392,0,4.473,0.4,5.965,2.012c1.489,1.502,1.994,3.707,1.994,6.01
		c0,2.4-0.396,4.508-1.994,6.008c-1.492,1.504-3.682,1.998-5.965,1.998V84.135z M66.202,64.096c-5.76,0-9.933,4.205-9.933,10.02
		c0,5.805,4.173,10.02,9.933,10.02v-2.014c-2.382,0-4.474-0.396-5.964-1.998c-1.492-1.5-1.984-3.707-1.984-6.008
		c0-2.41,0.396-4.508,1.984-6.01c1.49-1.504,3.679-2.012,5.964-2.012V64.096z"/>
	<g>
		<rect x="36.396" y="64.096" fill-rule="evenodd" clip-rule="evenodd" fill="#FFFFFF" width="17.878" height="1.004"/>
		<rect x="36.396" y="61.09" fill-rule="evenodd" clip-rule="evenodd" fill="#FFFFFF" width="27.822" height="1.006"/>
		<rect x="36.396" y="58.084" fill-rule="evenodd" clip-rule="evenodd" fill="#FFFFFF" width="27.822" height="1.006"/>
		<rect x="36.396" y="55.08" fill-rule="evenodd" clip-rule="evenodd" fill="#FFFFFF" width="27.822" height="1.006"/>
	</g>
	<path fill-rule="evenodd" clip-rule="evenodd" fill="#E22027" d="M55.273,36.058c0-2.763-2.237-5.004-4.967-5.004
		c-2.73,0-4.965,2.241-4.965,5.004c0,2.762,2.235,5.004,4.965,5.004C53.036,41.062,55.273,38.82,55.273,36.058z"/>
	<path fill-rule="evenodd" clip-rule="evenodd" fill="#E22027" d="M74.161,74.115c0-4.424-3.57-8.021-7.959-8.021
		c-4.377,0-7.948,3.598-7.948,8.021c0,4.41,3.571,8.006,7.948,8.006C70.591,82.121,74.161,78.525,74.161,74.115z"/>
	<g>
		<polygon fill-rule="evenodd" clip-rule="evenodd" fill="#FFFFFF" points="65.913,78.924 62.233,74.516 63.617,73.314 
			65.708,75.715 69.388,70.504 70.976,71.607 		"/>
	</g>
</g>
</svg>
