<?xml version="1.0" encoding="utf-8"?>
<!-- Generator: Adobe Illustrator 17.1.0, SVG Export Plug-In . SVG Version: 6.00 Build 0)  -->
<!DOCTYPE svg PUBLIC "-//W3C//DTD SVG 1.1//EN" "http://www.w3.org/Graphics/SVG/1.1/DTD/svg11.dtd">
<svg version="1.1" id="Layer_1" xmlns="http://www.w3.org/2000/svg" xmlns:xlink="http://www.w3.org/1999/xlink" x="0px" y="0px"
	 viewBox="0 0 75 50" enable-background="new 0 0 75 50" xml:space="preserve">
<g>
	<polygon fill="#E32126" points="62,37.5 1.5,49 1.5,1 73.5,1 62,37.5 62,37.5 	"/>
	<polygon fill="#FFFFFF" points="18.8,34.2 16.2,34.2 15.1,31.3 10.2,31.3 9.2,34.2 6.6,34.2 11.3,21.5 14,21.5 	"/>
	<polygon fill="#E32126" points="14.3,29.2 12.6,24.5 11,29.2 	"/>
	<path fill="#FFFFFF" d="M19.2,16.5h2.5v5.4c0.6-0.1,0.9-0.2,1.1-0.4c0.2-0.2,0.5-0.9,0.9-2c0.5-1.4,1-2.2,1.5-2.6
		c0.5-0.3,1.3-0.5,2.5-0.5c0.1,0,0.2,0,0.4,0v1.9l-0.3,0c-0.5,0-0.9,0.1-1.1,0.2c-0.2,0.1-0.4,0.3-0.6,0.6c-0.1,0.3-0.4,0.8-0.6,1.6
		c-0.2,0.4-0.3,0.8-0.5,1.1c-0.2,0.3-0.5,0.6-0.9,0.8c0.5,0.2,1,0.5,1.4,1c0.4,0.5,0.8,1.2,1.2,2.1l1.7,3.5h-2.9L23.8,26
		c0,0-0.1-0.1-0.1-0.3c0,0-0.1-0.2-0.3-0.6c-0.3-0.6-0.6-1-0.8-1.2c-0.2-0.2-0.5-0.2-0.9-0.2v5.6h-2.5L19.2,16.5L19.2,16.5z"/>
	<polygon fill="#FFFFFF" points="29.1,12.9 31.5,12.9 31.5,23.5 36.3,23.5 36.3,12.9 38.8,12.9 38.8,23.5 39.8,23.5 39.8,28.5 
		37.7,28.5 37.7,25.7 29.1,25.7 29.1,12.9 	"/>
	<polygon fill="#FFFFFF" points="41.2,10.6 43.5,10.6 43.5,19.1 48.4,10.6 50.9,10.6 50.9,23.4 48.6,23.4 48.6,15.1 43.6,23.4 
		41.2,23.4 41.2,10.6 	"/>
	<path fill="#FFFFFF" d="M60,19.6v-5.3h-0.5c-0.8,0-1.3,0.1-1.6,0.4c-0.3,0.2-0.9,1-1.6,2.2l-1.8,2.8h-2.9l1.5-2.5
		c0.6-1,1.1-1.7,1.4-2.1c0.3-0.4,0.8-0.8,1.3-1.1c-1.1-0.2-2-0.6-2.5-1.2c-0.5-0.6-0.8-1.4-0.8-2.3c0-0.8,0.2-1.5,0.6-2.1
		c0.4-0.6,0.9-1,1.5-1.2c0.6-0.2,1.5-0.3,2.8-0.3h5.2v12.7L60,19.6L60,19.6z"/>
	<path fill="#E32126" d="M60,9h-1.9c-1,0-1.6,0-1.9,0.1c-0.3,0-0.6,0.2-0.8,0.5c-0.2,0.3-0.3,0.6-0.3,1c0,0.4,0.1,0.8,0.3,1.1
		c0.2,0.3,0.5,0.4,0.8,0.5c0.3,0.1,1,0.1,2,0.1H60L60,9L60,9z"/>
</g>
</svg>
