<?xml version="1.0" encoding="UTF-8" standalone="no"?>
<svg width="77px" height="34px" viewBox="0 0 77 34" version="1.1" xmlns="http://www.w3.org/2000/svg" xmlns:xlink="http://www.w3.org/1999/xlink" xmlns:sketch="http://www.bohemiancoding.com/sketch/ns">
    <!-- Generator: Sketch 3.3.2 (12043) - http://www.bohemiancoding.com/sketch -->
    <title>sticker_new</title>
    <desc>Created with Sketch.</desc>
    <defs></defs>
    <g id="Page-1" stroke="none" stroke-width="1" fill="none" fill-rule="evenodd" sketch:type="MSPage">
        <g id="sticker_new" sketch:type="MSLayerGroup">
            <rect id="Rectangle-1" fill="#FFFFFF" sketch:type="MSShapeGroup" x="7" y="8" width="64" height="18"></rect>
            <path d="M0,34 L0,7 L77,0 L77,27 L0,34 L0,34 Z M18,14 L15.7,14.2 L15.7,18.4 L11.3,18.8 L11.3,14.6 L9,14.7 L9,25 L11.3,24.8 L11.3,20.5 L15.7,20.1 L15.7,24.4 L18,24.2 L18,14 L18,14 Z M26.8,18.1 C26.7,17.6 26.4,17.2 26.2,16.9 C25.9,16.6 25.6,16.3 25.1,16.2 C24.7,16.1 24.1,16 23.6,16.1 C22.5,16.2 21.6,16.6 21,17.4 C20.4,18.1 20.1,19.2 20.1,20.4 C20.1,21 20.2,21.5 20.3,22 C20.4,22.5 20.7,22.9 21,23.2 C21.3,23.5 21.7,23.8 22.1,23.9 C22.5,24 23.1,24.1 23.6,24 C24.7,23.9 25.6,23.5 26.2,22.7 C26.8,22 27.1,20.9 27.1,19.7 C27,19.1 26.9,18.5 26.8,18.1 L26.8,18.1 Z M34.4,17.7 C34.6,17.3 34.7,17 34.7,16.6 C34.7,16 34.5,15.5 34,15.2 C33.5,14.9 32.8,14.8 31.7,14.9 C31.1,15 30.6,15 30.1,15.1 C29.6,15.2 29.2,15.2 28.9,15.3 L28.9,23 L30.1,23 C30.6,23 31,23 31.4,22.9 C32.6,22.8 33.5,22.5 34.1,22.1 C34.7,21.7 34.9,21.1 34.9,20.3 C34.9,19.8 34.8,19.4 34.6,19.1 C34.4,18.8 34,18.6 33.5,18.6 L33.5,18.5 C33.9,18.4 34.2,18.1 34.4,17.7 L34.4,17.7 Z M44,14 L42.7,14.1 L39.8,17.8 L39.1,18.9 L39,19 L39.1,18 L39.1,14.5 L37,14.6 L37,22 L38.3,21.9 L41.2,18.3 L41.9,17.2 L41.8,18.3 L41.8,21.7 L43.9,21.5 L43.9,14 L44,14 Z M53,13 L50.9,13.2 L50.9,16 L48.2,16.2 L48.2,13.4 L46,13.6 L46,21 L48.1,20.8 L48.1,17.9 L50.8,17.7 L50.8,20.6 L52.9,20.4 L52.9,13 L53,13 Z M59.7,15 L61.6,12 L59.4,12.2 L57.5,15.3 L57,15.6 L57,12.4 L55,12.6 L55,20 L57.1,19.8 L57.1,16.7 L57.7,16.7 L59.7,19.6 L62.1,19.4 L59.9,16.1 L59,15.6 L59.7,15 L59.7,15 Z M68.8,14.8 L68.8,13.4 C68.8,13 68.8,12.6 68.7,12.3 C68.6,12 68.5,11.7 68.3,11.5 C68.1,11.3 67.9,11.1 67.5,11 C67.2,10.9 66.8,10.9 66.3,10.9 C65.7,11 65.2,11.1 64.7,11.2 C64.2,11.4 63.7,11.5 63.4,11.8 L63.8,13.2 C64.1,13 64.4,12.9 64.8,12.8 C65.2,12.7 65.6,12.6 65.9,12.6 C66.4,12.6 66.7,12.6 66.8,12.9 C66.9,13.1 67,13.5 66.9,14.1 C66.3,14.1 65.7,14.2 65.2,14.3 C64.7,14.4 64.3,14.6 63.9,14.8 C63.5,15 63.3,15.3 63.1,15.7 C63.1,16.1 63,16.5 63,17 C63,17.3 63.1,17.6 63.2,17.9 C63.3,18.2 63.4,18.4 63.6,18.6 C63.8,18.8 64,18.9 64.3,19 C64.6,19.1 64.9,19.1 65.2,19.1 C65.7,19 66.1,18.9 66.5,18.6 C66.8,18.3 67.1,18 67.3,17.7 L67.4,17.7 L67.7,18.7 L69.2,18.5 C69.1,18.1 69,17.8 69,17.4 L69,16.1 C68.8,15.7 68.8,15.2 68.8,14.8 L68.8,14.8 Z M65.7,17.3 C65.4,17.3 65.2,17.3 65.1,17.1 C64.9,17 64.9,16.7 64.9,16.5 C64.9,16.3 65,16.1 65.1,16 C65.2,15.9 65.4,15.7 65.6,15.6 C65.8,15.5 66,15.4 66.3,15.4 C66.6,15.4 66.8,15.3 67.1,15.3 L67.1,16.3 C67,16.5 66.8,16.7 66.6,16.9 C66.4,17.2 66.1,17.3 65.7,17.3 L65.7,17.3 Z M31.7,21.3 L31.3,21.3 L30.9,21.3 L30.9,19.5 L31.9,19.4 C32.4,19.4 32.7,19.4 32.9,19.6 C33.1,19.7 33.2,20 33.2,20.2 C33.2,20.5 33.1,20.8 32.9,20.9 C32.6,21.1 32.2,21.3 31.7,21.3 L31.7,21.3 Z M31.8,18.3 L30.8,18.4 L30.8,16.8 C30.9,16.8 31,16.8 31.2,16.7 C31.3,16.7 31.5,16.7 31.7,16.6 C32.1,16.6 32.5,16.6 32.6,16.7 C32.8,16.8 32.9,17 32.9,17.3 C32.9,17.5 32.8,17.8 32.6,17.9 C32.4,18.1 32.2,18.2 31.8,18.3 L31.8,18.3 Z M23.5,22.3 C23.2,22.3 23,22.3 22.8,22.2 C22.6,22.1 22.5,22 22.3,21.8 C22.2,21.6 22.1,21.4 22,21.1 L22,20.1 C22,19.3 22.1,18.7 22.4,18.3 C22.7,17.9 23,17.7 23.5,17.6 C24,17.5 24.4,17.7 24.7,18.1 C24.9,18.5 25,19.1 25,19.8 C25,20.6 24.9,21.2 24.6,21.6 C24.4,22.1 24,22.3 23.5,22.3 L23.5,22.3 Z" id="Shape" fill="#379D46" sketch:type="MSShapeGroup"></path>
        </g>
    </g>
</svg>